<svg xmlns="http://www.w3.org/2000/svg" viewBox="0 0 479.447 479.447" ><path d="M239.446.022c-8.594 0-17.182.462-25.727 1.383-7.832.8-15.568 2.112-23.2 3.704l-4.432.976C141.12 16.323 100.06 39.314 67.831 72.301c-2.997 3.072-5.931 6.235-8.8 9.488-87.06 99.948-76.612 251.548 23.337 338.608 95.688 83.349 239.723 77.803 328.719-12.656 3.003-3.072 5.936-6.235 8.8-9.488 38.421-43.754 59.594-100.003 59.56-158.232 0-132.549-107.452-240-240.001-239.999zM78.495 84.301c1.264-1.312 2.576-2.568 3.864-3.84l4.488-4.352c1.336-1.248 2.712-2.448 4.08-3.664l4.664-4.056c1.392-1.176 2.824-2.304 4.248-3.44l4.848-3.792a154.97 154.97 0 0 1 4.424-3.2c1.656-1.184 3.32-2.4 5.008-3.504 1.512-1.024 3.04-2.016 4.576-3l5.168-3.2 4.72-2.752 5.336-2.952 4.8-2.504 5.512-2.68c1.6-.76 3.264-1.52 4.912-2.24l5.688-2.4 4.976-1.984c1.936-.736 3.896-1.424 5.856-2.112l5.04-1.72c1.992-.64 4-1.232 6.016-1.816l5.056-1.448c.648-.168 1.296-.304 1.944-.472a198.5 198.5 0 0 0-51.128 83.024 268.7 268.7 0 0 1-54.816-21.096c.264-.28.488-.56.72-.8zm-11.504 12.88a277.95 277.95 0 0 0 60.712 24.16c-10.352 35.996-15.786 73.227-16.152 110.68h-95.92c1.743-49.389 19.804-96.807 51.36-134.84zm0 285.68c-31.554-38.034-49.615-85.452-51.36-134.84h95.92c.366 37.453 5.799 74.684 16.152 110.68a278.14 278.14 0 0 0-60.712 24.16zm114.736 73.568c-1.616-.408-3.288-.936-4.952-1.424l-6.056-1.832c-1.688-.544-3.352-1.128-5.016-1.712l-5.88-2.12c-1.664-.632-3.304-1.296-4.952-1.968l-5.72-2.4-4.872-2.224-5.6-2.704-4.8-2.472-5.392-2.984c-1.6-.888-3.12-1.8-4.664-2.728-1.76-1.056-3.488-2.144-5.216-3.256l-4.536-2.96c-1.704-1.152-3.392-2.352-5.064-3.552l-4.368-3.2c-1.656-1.248-3.28-2.536-4.896-3.832l-4.208-3.408c-1.6-1.328-3.144-2.712-4.696-4.088l-4.056-3.632c-1.528-1.424-3.008-2.904-4.496-4.368l-3.864-3.832-.688-.744c17.445-9.018 35.827-16.095 54.816-21.104a198.55 198.55 0 0 0 51.128 83.024l-1.952-.48zm49.72 6.96c-34.232-4.864-64.24-40.592-83.12-93.352a406.55 406.55 0 0 1 83.12-9.784v103.136zm0-119.136c-29.67.39-59.215 3.914-88.144 10.512a400.21 400.21 0 0 1-15.752-106.744h103.896v96.232zm0-112.232H127.551a400.13 400.13 0 0 1 15.752-106.744c28.929 6.597 58.475 10.121 88.144 10.512v96.232zm0-112.232c-27.97-.39-55.824-3.669-83.12-9.784 18.88-52.76 48.888-88.488 83.12-93.352v103.136zm180.456-22.608c31.554 38.034 49.615 85.452 51.36 134.84h-95.92c-.366-37.453-5.799-74.684-16.152-110.68a278.24 278.24 0 0 0 60.712-24.16zm-114.8-73.576c1.68.416 3.352.944 5.016 1.432l6.056 1.832c1.688.544 3.352 1.128 5.016 1.712l5.88 2.12c1.664.632 3.304 1.296 4.952 1.968l5.72 2.4 4.872 2.224 5.6 2.704 4.8 2.472 5.392 2.984c1.6.888 3.12 1.8 4.664 2.728 1.76 1.056 3.488 2.144 5.216 3.256l4.536 2.96c1.704 1.152 3.384 2.344 5.056 3.544l4.384 3.2c1.648 1.24 3.264 2.528 4.888 3.824l4.208 3.408c1.6 1.328 3.144 2.712 4.696 4.088l4.056 3.632c1.528 1.424 3.008 2.904 4.496 4.368l3.864 3.832.688.744c-17.445 9.018-35.827 16.095-54.816 21.104a198.54 198.54 0 0 0-51.192-83.016l1.952.48zm-49.656-6.952c34.232 4.864 64.24 40.592 83.12 93.352a406.55 406.55 0 0 1-83.12 9.784V16.653zm0 119.136c29.67-.39 59.215-3.914 88.144-10.512a400.21 400.21 0 0 1 15.752 106.744H247.447v-96.232zm0 112.232h103.896a400.13 400.13 0 0 1-15.752 106.744h0c-28.929-6.597-58.474-10.121-88.144-10.512v-96.232zm0 215.368V360.253c27.97.39 55.824 3.669 83.12 9.784-18.88 52.76-48.888 88.488-83.12 93.352zm152.952-67.648c-1.264 1.304-2.568 2.56-3.856 3.832l-4.504 4.368c-1.328 1.24-2.696 2.4-4.056 3.64l-4.68 4.08c-1.4 1.168-2.824 2.296-4.248 3.432l-4.848 3.792a154.97 154.97 0 0 1-4.424 3.2c-1.656 1.184-3.32 2.4-5.008 3.504a186.92 186.92 0 0 1-4.576 2.992c-1.712 1.104-3.437 2.171-5.176 3.2l-4.704 2.752-5.344 2.952-4.8 2.504a233.35 233.35 0 0 1-5.512 2.68c-1.6.76-3.264 1.52-4.912 2.24l-5.688 2.4-4.968 1.976c-1.952.744-3.912 1.44-5.88 2.12l-5.016 1.712c-2 .648-4 1.24-6.04 1.824l-5.04 1.448c-.648.168-1.296.304-1.944.472a198.5 198.5 0 0 0 51.128-83.024 268.7 268.7 0 0 1 54.816 21.096c-.264.288-.488.568-.72.808zm11.504-12.88a277.95 277.95 0 0 0-60.712-24.16c10.352-35.996 15.786-73.227 16.152-110.68h95.92a223.51 223.51 0 0 1-51.36 134.84z" fill="#b5a37f"/></svg>