<?xml version="1.0" encoding="UTF-8" standalone="no"?>
<svg width="75px" height="65px" viewBox="0 0 75 65" version="1.1" xmlns="http://www.w3.org/2000/svg" xmlns:xlink="http://www.w3.org/1999/xlink" xmlns:sketch="http://www.bohemiancoding.com/sketch/ns">
	<!-- Generator: Sketch 3.2.2 (9983) - http://www.bohemiancoding.com/sketch -->
	<title>Facebook</title>
	<desc>Created with Sketch.</desc>
	<defs></defs>
	<g id="Page-1" stroke="none" stroke-width="1" fill="none" fill-rule="evenodd" sketch:type="MSPage">
		<g id="Start-screen" sketch:type="MSArtboardGroup" transform="translate(-143.000000, -530.000000)">
			<g id="Help-+-Social" sketch:type="MSLayerGroup" transform="translate(48.000000, 525.000000)">
				<g id="Social" transform="translate(95.000000, 0.000000)" sketch:type="MSShapeGroup">
					<g id="Facebook">
						<polygon id="Score-hex-2" fill="#3C5B9A" transform="translate(37.500000, 37.500000) rotate(-90.000000) translate(-37.500000, -37.500000) " points="37.5 0 69.9759526 18.75 69.9759526 56.25 37.5 75 5.02404736 56.25 5.02404736 18.75 "></polygon>
						<path d="M43.093578,27.9857143 L46,27.9857143 L46,23.2142857 C45.5009174,23.1428571 43.7834862,23 41.7724771,23 C37.5889908,23 34.7266055,25.4857143 34.7266055,30.0428571 L34.7266055,33.9714286 L30,33.9714286 L30,39.3 L34.7266055,39.3 L34.7266055,53 L40.3779817,53 L40.3779817,39.3142857 L45.0899083,39.3142857 L45.7944954,33.9857143 L40.3779817,33.9857143 L40.3779817,30.5714286 C40.3779817,29.0285714 40.8183486,27.9857143 43.093578,27.9857143 L43.093578,27.9857143 Z" id="Shape" fill="#FFFFFF"></path>
					</g>
				</g>
			</g>
		</g>
	</g>
</svg>