<?xml version="1.0" encoding="UTF-8" standalone="no"?>
<svg width="75px" height="65px" viewBox="0 0 75 65" version="1.1" xmlns="http://www.w3.org/2000/svg" xmlns:xlink="http://www.w3.org/1999/xlink" xmlns:sketch="http://www.bohemiancoding.com/sketch/ns">
	<!-- Generator: Sketch 3.2.2 (9983) - http://www.bohemiancoding.com/sketch -->
	<title>Twitter</title>
	<desc>Created with Sketch.</desc>
	<defs></defs>
	<g id="Page-1" stroke="none" stroke-width="1" fill="none" fill-rule="evenodd" sketch:type="MSPage">
		<g id="Start-screen" sketch:type="MSArtboardGroup" transform="translate(-238.000000, -530.000000)">
			<g id="Help-+-Social" sketch:type="MSLayerGroup" transform="translate(48.000000, 525.000000)">
				<g id="Social" transform="translate(95.000000, 0.000000)" sketch:type="MSShapeGroup">
					<g id="Twitter" transform="translate(95.000000, 0.000000)">
						<polygon id="Score-hex-3" fill="#55ACEE" transform="translate(37.500000, 37.500000) rotate(-90.000000) translate(-37.500000, -37.500000) " points="37.5 0 69.9759526 18.75 69.9759526 56.25 37.5 75 5.02404736 56.25 5.02404736 18.75 "></polygon>
						<path d="M53,27.9545455 C51.9041096,28.4615385 50.7054795,28.7937063 49.4726027,28.951049 C50.739726,28.1643357 51.7157534,26.9405594 52.1780822,25.4545455 C50.9965753,26.1713287 49.6780822,26.6958042 48.2739726,26.993007 C47.1609589,25.7692308 45.5513699,25 43.7876712,25 C40.3972603,25 37.640411,27.8321678 37.640411,31.3111888 C37.640411,31.8006993 37.6917808,32.2902098 37.7945205,32.7447552 C32.6917808,32.4825175 28.1541096,29.965035 25.1232877,26.1538462 C24.5924658,27.0804196 24.2842466,28.1643357 24.2842466,29.3181818 C24.2842466,31.5034965 25.3630137,33.4440559 27.0239726,34.5629371 C26.0136986,34.527972 25.0719178,34.2482517 24.2328767,33.7762238 L24.2328767,33.8636364 C24.2328767,36.9230769 26.3561644,39.4755245 29.1643836,40.0524476 C28.6506849,40.1923077 28.1027397,40.2797203 27.5376712,40.2797203 C27.1438356,40.2797203 26.75,40.2447552 26.3732877,40.1748252 C27.1609589,42.6748252 29.4212329,44.5104895 32.109589,44.5629371 C30.0034247,46.2587413 27.3493151,47.2727273 24.4726027,47.2727273 C23.9760274,47.2727273 23.4794521,47.2377622 23,47.1853147 C25.7568493,48.951049 28.9931507,50 32.4520548,50 C43.7534247,50 49.9520548,40.3846154 49.9520548,32.0454545 C49.9520548,31.7657343 49.9520548,31.5034965 49.9349315,31.2237762 C51.1335616,30.3321678 52.1780822,29.2307692 53,27.9545455 L53,27.9545455 Z" id="Shape" fill="#FFFFFF"></path>
					</g>
				</g>
			</g>
		</g>
	</g>
</svg>