<?xml version="1.0" encoding="UTF-8" standalone="no"?>
<svg
   xmlns:sketch="http://www.bohemiancoding.com/sketch/ns"
   xmlns:dc="http://purl.org/dc/elements/1.1/"
   xmlns:cc="http://creativecommons.org/ns#"
   xmlns:rdf="http://www.w3.org/1999/02/22-rdf-syntax-ns#"
   xmlns:svg="http://www.w3.org/2000/svg"
   xmlns="http://www.w3.org/2000/svg"
   xmlns:sodipodi="http://sodipodi.sourceforge.net/DTD/sodipodi-0.dtd"
   xmlns:inkscape="http://www.inkscape.org/namespaces/inkscape"
   inkscape:version="1.0 (4035a4fb49, 2020-05-01)"
   sodipodi:docname="btn_help.svg"
   id="svg13"
   version="1.1"
   viewBox="0 0 480 480"
   height="480"
   width="480">
  <metadata
     id="metadata17">
    <rdf:RDF>
      <cc:Work
         rdf:about="">
        <dc:format>image/svg+xml</dc:format>
        <dc:type
           rdf:resource="http://purl.org/dc/dcmitype/StillImage" />
        <dc:title>Help</dc:title>
      </cc:Work>
    </rdf:RDF>
  </metadata>
  <sodipodi:namedview
     id="namedview15"
     guidetolerance="10"
     gridtolerance="10"
     objecttolerance="10"
     borderopacity="1"
     bordercolor="#666666"
     pagecolor="#ffffff" />
  <!-- Generator: Sketch 3.2.2 (9983) - http://www.bohemiancoding.com/sketch -->
  <title
     id="title2">Help</title>
  <desc
     id="desc4">Created with Sketch.</desc>
  <defs
     id="defs6" />
  <g
     transform="matrix(19.12,0,0,19.12,-464.99958,-381.4)"
     sketch:type="MSPage"
     fill-rule="evenodd"
     fill="none"
     stroke-width="0.0523012"
     stroke="none"
     id="Page-1">
    <g
       style="stroke-width:0.0523012"
       transform="translate(-48,-530)"
       sketch:type="MSArtboardGroup"
       id="Start-screen">
      <g
         style="stroke-width:0.0523012"
         transform="translate(48,525)"
         sketch:type="MSLayerGroup"
         id="Help-+-Social">
        <g
           style="stroke-width:0.0523012"
           sketch:type="MSShapeGroup"
           id="Help">
          <path
             style="stroke-width:0.00272402"
             fill="#ffffff"
             id="?"
             d="M 29.179325,28.792135 29,25.807584 c 0.215191,-0.04682 0.609702,-0.122893 1.183544,-0.22823 0.573843,-0.105338 0.962376,-0.16971 1.165612,-0.193118 0.203236,-0.02341 0.561882,-0.07022 1.075949,-0.14045 0.514068,-0.07023 0.962376,-0.117041 1.344937,-0.140449 0.382562,-0.02341 0.884667,-0.04682 1.506329,-0.07022 C 35.898034,25.011704 36.567507,25 37.28481,25 c 2.510561,0 4.381499,0.444752 5.612869,1.33427 1.231371,0.889517 1.847047,2.258886 1.847047,4.108146 0,0.959742 -0.20921,1.843395 -0.627637,2.650983 -0.418427,0.807588 -0.932487,1.51568 -1.542195,2.124298 -0.609707,0.608617 -1.219406,1.228929 -1.829113,1.860955 -0.609708,0.632025 -1.147677,1.40449 -1.613925,2.317415 -0.466246,0.912926 -0.735231,1.919471 -0.806962,3.019663 h -3.622362 c -0.02391,-1.170418 0.13748,-2.253038 0.484177,-3.247893 0.346696,-0.994855 0.783049,-1.825839 1.309072,-2.492977 0.526022,-0.667139 1.058014,-1.293303 1.595991,-1.878512 0.537978,-0.585209 1.010195,-1.176261 1.416667,-1.773174 0.406472,-0.596913 0.621659,-1.187965 0.645569,-1.773174 0.04782,-0.936334 -0.233119,-1.621018 -0.842827,-2.054073 -0.609707,-0.433055 -1.607939,-0.649579 -2.994725,-0.649579 -1.912809,0 -4.291829,0.08193 -7.137131,0.245787 z m 6.814346,16.397472 h 1.040084 c 0.597753,0 1.010196,0.111188 1.237342,0.333567 0.227146,0.222379 0.340717,0.614464 0.340717,1.176264 v 1.790731 c 0,0.5618 -0.113571,0.953884 -0.340717,1.176264 C 38.043951,49.888812 37.631508,50 37.033755,50 h -1.040084 c -0.597753,0 -1.010196,-0.111188 -1.237342,-0.333567 -0.227146,-0.22238 -0.340717,-0.614464 -0.340717,-1.176264 v -1.790731 c 0,-0.5618 0.113571,-0.953885 0.340717,-1.176264 0.227146,-0.222379 0.639589,-0.333567 1.237342,-0.333567 z" />
        </g>
      </g>
    </g>
  </g>
</svg>
