<?xml version="1.0" encoding="UTF-8" standalone="no"?>
<svg
   xmlns:sketch="http://www.bohemiancoding.com/sketch/ns"
   xmlns:dc="http://purl.org/dc/elements/1.1/"
   xmlns:cc="http://creativecommons.org/ns#"
   xmlns:rdf="http://www.w3.org/1999/02/22-rdf-syntax-ns#"
   xmlns:svg="http://www.w3.org/2000/svg"
   xmlns="http://www.w3.org/2000/svg"
   xmlns:sodipodi="http://sodipodi.sourceforge.net/DTD/sodipodi-0.dtd"
   xmlns:inkscape="http://www.inkscape.org/namespaces/inkscape"
   inkscape:version="1.0 (4035a4fb49, 2020-05-01)"
   sodipodi:docname="btn_restart.svg"
   id="svg12"
   version="1.1"
   viewBox="0 0 480 480"
   height="480"
   width="480">
  <metadata
     id="metadata16">
    <rdf:RDF>
      <cc:Work
         rdf:about="">
        <dc:format>image/svg+xml</dc:format>
        <dc:type
           rdf:resource="http://purl.org/dc/dcmitype/StillImage" />
        <dc:title>Restart button</dc:title>
      </cc:Work>
    </rdf:RDF>
  </metadata>
  <sodipodi:namedview
     showgrid="false"
     id="namedview14"
     guidetolerance="10"
     gridtolerance="10"
     objecttolerance="10"
     borderopacity="1"
     bordercolor="#666666"
     pagecolor="#ffffff" />
  <!-- Generator: Sketch 3.2.2 (9983) - http://www.bohemiancoding.com/sketch -->
  <title
     id="title2">Restart button</title>
  <desc
     id="desc4">Created with Sketch.</desc>
  <defs
     id="defs6" />
  <g
     transform="matrix(17.071429,0,0,17.071429,-408.7143,-323.35716)"
     sketch:type="MSPage"
     fill-rule="evenodd"
     fill="none"
     stroke-width="0.0585774"
     stroke="none"
     id="Page-1">
    <g
       style="stroke-width:0.0585774"
       transform="translate(-10,-565)"
       sketch:type="MSArtboardGroup"
       id="Paused">
      <g
         style="stroke-width:0.0585774"
         transform="translate(10,560)"
         sketch:type="MSLayerGroup"
         id="Restart-button">
        <path
           style="stroke-width:0.00341702"
           sketch:type="MSShapeGroup"
           fill="#ffffff"
           id="Shape"
           d="M 47.884928,28.1125 C 45.354597,25.575 41.861163,24 37.991244,24 30.251407,24 24,30.265 24,38 c 0,7.735 6.251407,14 13.991244,14 6.522827,0 11.986242,-4.4625 13.535961,-10.5 h -3.642277 c -1.444653,4.0775 -5.314571,7 -9.893684,7 -5.804878,0 -10.506566,-4.69875 -10.506566,-10.5 0,-5.80125 4.701688,-10.5 10.506566,-10.5 2.898062,0 5.498437,1.2075 7.398374,3.10625 L 39.742339,36.25 H 52 V 24 Z" />
      </g>
    </g>
  </g>
</svg>
