<svg xmlns="http://www.w3.org/2000/svg" viewBox="0 0 480 480" height="480" width="480" ><path fill="#fff" d="M92.909 73.506L89.48 16.441c4.114-.895 11.658-2.35 22.629-4.364s18.401-3.245 22.287-3.692 10.743-1.343 20.572-2.685 18.401-2.238 25.715-2.685l28.801-1.343C221.371 1.224 234.171 1 247.886 1c48.002 0 83.774 8.504 107.318 25.511s35.316 43.19 35.316 78.548c0 18.35-4 35.246-12 50.687s-17.829 28.98-29.487 40.617l-34.973 35.581c-11.658 12.084-21.944 26.854-30.858 44.309s-14.058 36.7-15.429 57.736h-69.26c-.457-22.378 2.629-43.078 9.257-62.1s14.972-34.91 25.029-47.666 20.229-24.728 30.515-35.917 19.315-22.49 27.087-33.903 11.886-22.714 12.343-33.903c.914-17.903-4.457-30.994-16.115-39.274s-30.744-12.42-57.259-12.42c-36.573 0-82.06 1.567-136.462 4.699zm130.29 313.52h19.886c11.429 0 19.315 2.126 23.658 6.378s6.515 11.749 6.515 22.49v34.239c0 10.742-2.171 18.238-6.515 22.49S254.515 479 243.086 479h-19.886c-11.429 0-19.315-2.126-23.658-6.378s-6.515-11.749-6.515-22.49v-34.239c0-10.742 2.171-18.238 6.515-22.49s12.229-6.378 23.658-6.378z" fill-rule="evenodd"/></svg>