<?xml version="1.0" encoding="UTF-8" standalone="no"?>
<svg width="75px" height="65px" viewBox="0 0 75 65" version="1.1" xmlns="http://www.w3.org/2000/svg" xmlns:xlink="http://www.w3.org/1999/xlink" xmlns:sketch="http://www.bohemiancoding.com/sketch/ns">
	<!-- Generator: Sketch 3.2.2 (9983) - http://www.bohemiancoding.com/sketch -->
	<title>Help</title>
	<desc>Created with Sketch.</desc>
	<defs></defs>
	<g id="Page-1" stroke="none" stroke-width="1" fill="none" fill-rule="evenodd" sketch:type="MSPage">
		<g id="Start-screen" sketch:type="MSArtboardGroup" transform="translate(-48.000000, -530.000000)">
			<g id="Help-+-Social" sketch:type="MSLayerGroup" transform="translate(48.000000, 525.000000)">
				<g id="Help" sketch:type="MSShapeGroup">
					<polygon id="Score-hex-4" fill="#BDC3C7" transform="translate(37.500000, 37.500000) rotate(-90.000000) translate(-37.500000, -37.500000) " points="37.5 0 69.9759526 18.75 69.9759526 56.25 37.5 75 5.02404736 56.25 5.02404736 18.75 "></polygon>
					<path d="M29.1793249,28.7921348 L29,25.8075843 C29.2151909,25.7607676 29.6097018,25.6846915 30.1835443,25.5793539 C30.7573868,25.4740163 31.1459202,25.4096443 31.3491561,25.386236 C31.552392,25.3628276 31.9110382,25.3160116 32.4251055,25.2457865 C32.9391728,25.1755614 33.3874805,25.1287454 33.7700422,25.1053371 C34.1526039,25.0819287 34.6547086,25.0585207 35.2763713,25.0351124 C35.8980341,25.011704 36.567507,25 37.2848101,25 C39.7953712,25 41.6663089,25.4447521 42.8976793,26.3342697 C44.1290498,27.2237872 44.7447257,28.5931555 44.7447257,30.4424157 C44.7447257,31.4021584 44.5355155,32.2858106 44.1170886,33.0933989 C43.6986618,33.9009872 43.1846022,34.6090794 42.5748945,35.2176966 C41.9651868,35.8263139 41.3554883,36.4466261 40.7457806,37.0786517 C40.1360729,37.7106773 39.5981036,38.4831415 39.1318565,39.3960674 C38.6656095,40.3089933 38.3966248,41.3155376 38.3248945,42.4157303 L34.7025316,42.4157303 C34.6786215,41.2453125 34.8400123,40.1626922 35.1867089,39.1678371 C35.5334054,38.1729819 35.9697583,37.3419977 36.4957806,36.6748596 C37.0218029,36.0077214 37.5537948,35.3815572 38.0917722,34.7963483 C38.6297495,34.2111394 39.101967,33.6200873 39.5084388,33.0231742 C39.9149106,32.4262611 40.1300983,31.8352089 40.1540084,31.25 C40.2018286,30.3136657 39.9208891,29.6289816 39.3111814,29.195927 C38.7014737,28.7628724 37.7032418,28.5463483 36.3164557,28.5463483 C34.4036473,28.5463483 32.0246274,28.6282763 29.1793249,28.7921348 L29.1793249,28.7921348 Z M35.9936709,45.1896067 L37.0337553,45.1896067 C37.6315079,45.1896067 38.043951,45.3007948 38.271097,45.5231742 C38.498243,45.7455535 38.6118143,46.1376376 38.6118143,46.6994382 L38.6118143,48.4901685 C38.6118143,49.0519691 38.498243,49.4440532 38.271097,49.6664326 C38.043951,49.888812 37.6315079,50 37.0337553,50 L35.9936709,50 C35.3959182,50 34.9834751,49.888812 34.7563291,49.6664326 C34.5291831,49.4440532 34.4156118,49.0519691 34.4156118,48.4901685 L34.4156118,46.6994382 C34.4156118,46.1376376 34.5291831,45.7455535 34.7563291,45.5231742 C34.9834751,45.3007948 35.3959182,45.1896067 35.9936709,45.1896067 L35.9936709,45.1896067 Z" id="?" fill="#FFFFFF"></path>
				</g>
			</g>
		</g>
	</g>
</svg>