<svg xmlns="http://www.w3.org/2000/svg" viewBox='0 0 480.00001 480.00001' height="480" width="480"><path d="M479 173.341c0 144.894-171.782 240.494-224.062 265.888-8.962 4.482-20.912 4.482-29.875 0C172.782 413.835 1 321.222 1 173.341 1 98.653 56.269 37.41 123.487 37.41c53.775 0 98.588 37.344 115.019 89.625 16.431-52.281 62.737-89.625 115.019-89.625C423.731 37.41 479 98.653 479 173.341z" fill="#e24c4b"/><path d="M479 173.341c0 144.894-171.782 240.494-224.062 265.888-8.962 4.482-20.912 4.482-31.369 0-23.9-10.457-68.509-36.664-113.322-72.515l1.29.814c119.99 75.762 255.431-115.019 255.431-255.431 0-25.394-4.482-50.788-11.95-74.687C425.225 38.903 479 98.653 479 173.341z" fill="#d1403f"/><path d="M122.913 126.484c-5.176 19.886-21.619 33.675-36.222 31.599-15.137-3.688-22.803-20.793-17.47-40.658s21.619-33.675 36.222-31.599c15.76 2.57 22.532 21.209 17.47 40.658z" fill="#fff" opacity=".2"/></svg>