<svg xmlns="http://www.w3.org/2000/svg" viewBox="0 0 480 480" height="480" width="480"><path d="M6.623 226.245L163.497 69.374a19.14 19.14 0 0 1 13.636-5.632 19.14 19.14 0 0 1 13.636 5.632l11.553 11.55c7.517 7.526 7.517 19.758 0 27.272l-131.73 131.73 131.877 131.877c3.628 3.631 5.632 8.472 5.632 13.633a19.17 19.17 0 0 1-5.632 13.642l-11.553 11.547c-3.631 3.631-8.472 5.632-13.636 5.632a19.14 19.14 0 0 1-13.636-5.632L6.623 253.612A19.17 19.17 0 0 1 1 239.936c-.011-5.19 1.986-10.051 5.623-13.691zm135.451 0L298.947 69.374a19.14 19.14 0 0 1 13.636-5.632 19.14 19.14 0 0 1 13.636 5.632l11.553 11.55c7.517 7.526 7.517 19.758 0 27.272l-131.73 131.73 131.877 131.877c3.628 3.631 5.632 8.472 5.632 13.633a19.17 19.17 0 0 1-5.632 13.642l-11.553 11.547c-3.631 3.631-8.472 5.632-13.636 5.632a19.14 19.14 0 0 1-13.636-5.632l-157.02-157.014a19.17 19.17 0 0 1-5.623-13.676c-.011-5.19 1.986-10.051 5.623-13.691zm135.45 0L434.398 69.374a19.14 19.14 0 0 1 13.636-5.632 19.14 19.14 0 0 1 13.636 5.632l11.553 11.55c7.517 7.526 7.517 19.758 0 27.272l-131.73 131.73L473.37 371.803c3.628 3.631 5.632 8.472 5.632 13.633a19.17 19.17 0 0 1-5.632 13.642l-11.553 11.547c-3.631 3.631-8.472 5.632-13.636 5.632a19.14 19.14 0 0 1-13.636-5.632l-157.02-157.014a19.17 19.17 0 0 1-5.623-13.676c-.011-5.19 1.986-10.051 5.623-13.691z"/></svg>