<svg xmlns="http://www.w3.org/2000/svg" viewBox="0 0 127 127" height="480" width="480" xmlns:v="https://vecta.io/nano"><path d="M8.468 60.65c.332-.351.567-.518 19.667-19.619a3.47 3.47 0 0 1 3.783-.753c1.297.537 2.168 1.803 2.143 3.207l-1.332 75.784c-.034 1.917-1.554 3.471-3.471 3.471H10.745a3.47 3.47 0 0 1-3.404-2.792L.873 87.517c-1.961-9.765.882-19.812 7.595-26.866z" fill="#f6dfd0"/><path d="M20.982 71.131l14.061-13.622c1.377-1.334 1.356-3.553 0-4.909s-3.532-1.334-4.909 0L16.073 66.222c-1.377 1.334-1.356 3.553 0 4.909s3.532 1.334 4.909 0z" fill="#f0cabb"/><path fill="#f5dccc" d="M118.532 60.65c-.332-.351-1.403-1.293-20.504-20.394a3.47 3.47 0 0 0-5.926 2.454v74.514c0 1.917 3.723 5.516 5.64 5.516h18.513a3.47 3.47 0 0 0 3.404-2.792l6.468-32.432c1.961-9.765-.882-19.812-7.595-26.866z"/><path fill="#f0cabb" d="M106.018 71.131L92.437 57.302c-1.343-1.368-1.356-3.553 0-4.909s3.566-1.368 4.909 0l13.581 13.829c1.343 1.368 1.356 3.553 0 4.909s-3.566 1.368-4.909 0z"/><path fill="#bceaf9" d="M96.431 14.673v97.654a10.43 10.43 0 0 1-10.413 10.413H40.661a10.43 10.43 0 0 1-10.413-10.413V14.673A10.43 10.43 0 0 1 40.661 4.259h45.356a10.43 10.43 0 0 1 10.413 10.413z"/><path d="M96.431 14.673v97.654c0 5.741-7.873 10.413-17.548 10.413H63.342V4.259h15.541c9.675 0 17.548 4.672 17.548 10.413z" fill="#91ddf4"/><path fill="#425796" d="M86.017 4.259H40.661a10.43 10.43 0 0 0-10.413 10.413v97.654a10.43 10.43 0 0 0 10.413 10.413h45.356a10.43 10.43 0 0 0 10.413-10.413V14.673A10.43 10.43 0 0 0 86.017 4.259zm5.459 113.739H38.979c-1.23 0-3.471-1.901-3.471-3.845V12.379c0-1.914 1.557-3.471 3.471-3.471h49.026c1.914 0 3.471 1.557 3.471 3.471z"/><g fill="#354974"><path d="M96.431 14.673v97.654a10.43 10.43 0 0 1-10.413 10.413H63.339v-4.742h24.665c1.942.01 3.472-1.556 3.472-3.737V12.379c0-1.914-1.557-3.471-3.471-3.471H63.339V4.259h22.678a10.43 10.43 0 0 1 10.413 10.413z"/><path d="M63.338 11.468h6.932a2.29 2.29 0 0 0 2.294-2.294V8.41a2.29 2.29 0 0 0-2.294-2.294h-6.932z"/></g><path d="M63.338 6.116h-6.982a2.29 2.29 0 0 0-2.293 2.294v.764a2.29 2.29 0 0 0 2.293 2.294h6.982z" fill="#425796"/><rect y="114.313" x="55.907" height="1.026" width="14.864" ry=".513" fill="#526ab3" fill-opacity=".768"/><rect ry=".372" width="5.442" height=".744" x="60.618" y="9.747" fill="#283858"/><circle cx="68.416" cy="10.119" r=".744" fill="#91ddf4"/><circle r=".31" cy="10.119" cx="68.416" fill="#4a9de1"/><path d="M63.337 10.49h2.351a.37.37 0 1 0 0-.744h-2.351z" fill="#1b273d"/><path fill="#f5dccc" d="M94.371 59.315c-1.98-2.009-4.712-3.233-7.737-3.233a10.87 10.87 0 0 0-10.876 10.875c0 2.892 1.12 5.612 3.156 7.662L92.212 88.5a27.85 27.85 0 0 0-4.965 4.913c-5.166 6.547-7.785 15.246-7.785 25.856v3.471h25.455V70.262z"/><path d="M32.629 59.315c1.98-2.009 4.712-3.233 7.737-3.233a10.87 10.87 0 0 1 10.876 10.875c0 2.892-1.12 5.612-3.156 7.662L34.788 88.5a27.85 27.85 0 0 1 4.965 4.913c5.166 6.547 7.785 15.246 7.785 25.856v3.471H22.084V70.262z" fill="#f6dfd0"/></svg>