<?xml version="1.0" encoding="UTF-8" standalone="no"?>
<svg
   xmlns:dc="http://purl.org/dc/elements/1.1/"
   xmlns:cc="http://creativecommons.org/ns#"
   xmlns:rdf="http://www.w3.org/1999/02/22-rdf-syntax-ns#"
   xmlns:svg="http://www.w3.org/2000/svg"
   xmlns="http://www.w3.org/2000/svg"
   xmlns:sodipodi="http://sodipodi.sourceforge.net/DTD/sodipodi-0.dtd"
   xmlns:inkscape="http://www.inkscape.org/namespaces/inkscape"
   sodipodi:docname="how_to_phone_1.svg"
   inkscape:version="1.0 (4035a4fb49, 2020-05-01)"
   id="svg913"
   version="1.1"
   viewBox="0 0 127 127"
   height="480"
   width="480">
  <defs
     id="defs907" />
  <sodipodi:namedview
     inkscape:window-maximized="1"
     inkscape:window-y="776"
     inkscape:window-x="4792"
     inkscape:window-height="1322"
     inkscape:window-width="3200"
     units="px"
     showgrid="false"
     inkscape:document-rotation="0"
     inkscape:current-layer="layer1"
     inkscape:document-units="mm"
     inkscape:cy="224.49201"
     inkscape:cx="261.3214"
     inkscape:zoom="1.4"
     inkscape:pageshadow="2"
     inkscape:pageopacity="0.0"
     borderopacity="1.0"
     bordercolor="#666666"
     pagecolor="#ffffff"
     id="base" />
  <metadata
     id="metadata910">
    <rdf:RDF>
      <cc:Work
         rdf:about="">
        <dc:format>image/svg+xml</dc:format>
        <dc:type
           rdf:resource="http://purl.org/dc/dcmitype/StillImage" />
        <dc:title></dc:title>
      </cc:Work>
    </rdf:RDF>
  </metadata>
  <g
     id="layer1"
     inkscape:groupmode="layer"
     inkscape:label="Capa 1">
    <path
       sodipodi:nodetypes="cccssssccc"
       d="m 8.4683041,60.650202 c 0.3316085,-0.351047 0.566797,-0.51825 19.6672679,-19.618954 0.992513,-0.992974 2.486024,-1.289408 3.782838,-0.752541 1.297045,0.537332 2.167518,1.803354 2.142845,3.206863 l -1.332294,75.78392 c -0.0337,1.9167 -1.554142,3.47113 -3.471132,3.47113 H 10.745135 c -1.6552651,0 -3.0805129,-1.16884 -3.4040207,-2.79217 L 0.87323958,87.516519 C -1.0879471,77.751768 1.7549087,67.704464 8.4683041,60.650202 Z"
       fill="#f5dccc"
       id="path1891"
       style="fill:#f6dfd0;fill-opacity:1;stroke-width:0.282223" />
    <g
       transform="matrix(-0.23140869,0,0,0.23140869,105.35773,4.2593759)"
       id="g1897"
       style="fill:#f0cabb;fill-opacity:1;stroke-width:1.14336">
      <g
         id="g1895"
         style="fill:#f0cabb;fill-opacity:1;stroke-width:1.14336">
        <path
           sodipodi:nodetypes="sscsscs"
           d="m 364.618,288.977 -60.76066,-58.86715 c -5.94998,-5.76456 -5.858,-15.355 0,-21.213 5.857,-5.858 15.26302,-5.76456 21.213,0 L 385.831,267.764 c 5.94998,5.76456 5.858,15.355 0,21.213 -5.856,5.857 -15.26302,5.76456 -21.213,0 z"
           fill="#f0cabb"
           id="path1893"
           style="fill:#f0cabb;fill-opacity:1;stroke-width:1.21959" />
      </g>
    </g>
    <path
       sodipodi:nodetypes="cccssssccc"
       style="fill:#f5dccc;fill-opacity:1;stroke-width:0.282223"
       id="path2"
       fill="#f5dccc"
       d="M 118.5317,60.650202 C 118.20009,60.299155 117.12834,59.357362 98.027869,40.256659 97.035358,39.263684 95.54185,38.967251 94.245038,39.504117 92.94799,40.041449 92.10219,41.307255 92.10219,42.71098 v 74.5136 c 0,1.91699 3.722994,5.51604 5.639985,5.51604 h 18.512695 c 1.65526,0 3.08051,-1.16884 3.40402,-2.79217 l 6.46787,-32.431931 c 1.96119,-9.764751 -0.88167,-19.812055 -7.59506,-26.866317 z" />
    <g
       style="stroke-width:1.14336"
       id="g8"
       transform="matrix(0.23140869,0,0,0.23140869,21.64227,4.2593759)">
      <g
         style="stroke-width:1.14336"
         id="g6">
        <path
           sodipodi:nodetypes="sscsscs"
           style="stroke-width:1.21959"
           id="path4"
           fill="#f0cabb"
           d="m 364.618,288.977 -58.68799,-59.75912 c -5.80479,-5.91073 -5.858,-15.355 0,-21.213 5.857,-5.858 15.40821,-5.91073 21.213,0 L 385.831,267.764 c 5.80479,5.91073 5.858,15.355 0,21.213 -5.856,5.857 -15.40821,5.91073 -21.213,0 z" />
      </g>
    </g>
    <path
       style="stroke-width:0.282223"
       id="path10"
       fill="#bceaf9"
       d="m 96.430524,14.672767 v 97.654463 c 0,5.74125 -4.67214,10.41339 -10.413392,10.41339 H 40.66103 c -5.741249,0 -10.413391,-4.67214 -10.413391,-10.41339 V 14.672767 c 0,-5.7412496 4.672142,-10.4133911 10.413391,-10.4133911 h 45.356102 c 5.741252,0 10.413392,4.6721415 10.413392,10.4133911 z" />
    <path
       sodipodi:nodetypes="sssccss"
       d="m 96.430524,14.672767 v 97.654463 c 0,5.74125 -7.873032,10.41339 -17.547624,10.41339 H 63.341782 V 4.2593759 H 78.8829 c 9.674592,0 17.547624,4.6721415 17.547624,10.4133911 z"
       fill="#78b7ea"
       id="path980"
       style="fill:#91ddf4;fill-opacity:1;stroke-width:0.282223" />
    <path
       style="stroke-width:0.282223"
       id="path14"
       fill="#425796"
       d="M 86.017132,4.2593759 H 40.66103 c -5.741249,0 -10.413391,4.6721415 -10.413391,10.4133911 v 97.654463 c 0,5.74125 4.672142,10.41339 10.413391,10.41339 h 45.356102 c 5.741252,0 10.413392,-4.67214 10.413392,-10.41339 V 14.672767 c 0,-5.7412496 -4.67214,-10.4133911 -10.413392,-10.4133911 z M 91.475991,117.99846 H 38.979256 c -1.229945,0 -3.471278,-1.90075 -3.471278,-3.84477 V 12.379235 c 0,-1.91375 1.55738,-3.4711308 3.471129,-3.4711308 H 88.00486 c 1.91375,0 3.471131,1.5573808 3.471131,3.4711308 z"
       sodipodi:nodetypes="sssssssssczzssssc" />
    <path
       style="fill:#354974;fill-opacity:1;stroke-width:0.282223"
       id="path16"
       fill="#283758"
       d="m 96.430524,14.672767 v 97.654463 c 0,5.74125 -4.67214,10.41339 -10.413392,10.41339 h -22.67805 v -4.74216 c 0,0 22.723021,-0.0104 24.665387,0 1.942367,0.0104 3.471522,-1.55607 3.471522,-3.73665 V 12.379235 c 0,-1.91375 -1.557381,-3.4711308 -3.471131,-3.4711308 H 63.339082 V 4.2593759 h 22.67805 c 5.741252,0 10.413392,4.6721415 10.413392,10.4133911 z"
       sodipodi:nodetypes="ssscczzssccss" />
    <path
       id="rect883"
       style="fill:#354974;fill-opacity:1;stroke-width:1.05833;stroke-linecap:round;stroke-linejoin:round"
       d="m 63.338351,11.468386 h 6.932092 c 1.270617,0 2.293756,-1.023137 2.293756,-2.293754 V 8.4102088 c 0,-1.2706167 -1.023139,-2.293754 -2.293756,-2.293754 h -6.932092 z" />
    <path
       id="path909"
       style="fill:#425796;fill-opacity:1;stroke:none;stroke-width:0.0264583;stroke-linecap:round;stroke-linejoin:round;stroke-miterlimit:4;stroke-dasharray:none;stroke-opacity:1"
       d="m 63.338351,6.1164548 h -6.981959 c -1.270617,0 -2.293268,1.0231373 -2.293268,2.293754 V 9.174632 c 0,1.270617 1.022651,2.293754 2.293268,2.293754 h 6.981959 z" />
    <rect
       y="114.31309"
       x="55.906918"
       height="1.0264249"
       width="14.864332"
       id="rect885"
       style="fill:#526ab3;fill-opacity:0.767717;stroke-width:1.05833;stroke-linecap:round;stroke-linejoin:round"
       ry="0.51321244" />
    <rect
       ry="0.37180308"
       style="fill:#283858;fill-opacity:1;stroke-width:1.05833;stroke-linecap:round;stroke-linejoin:round"
       id="rect933"
       width="5.4415202"
       height="0.74360615"
       x="60.61832"
       y="9.7467289" />
    <circle
       style="fill:#91ddf4;fill-opacity:1;stroke:none;stroke-width:0.0264583;stroke-linecap:round;stroke-linejoin:round;stroke-miterlimit:4;stroke-dasharray:none;stroke-opacity:1"
       id="path939"
       cx="68.416214"
       cy="10.118532"
       r="0.74360615" />
    <circle
       r="0.30983588"
       cy="10.118532"
       cx="68.416214"
       id="circle941"
       style="fill:#4a9de1;fill-opacity:1;stroke:none;stroke-width:0.0264583;stroke-linecap:round;stroke-linejoin:round;stroke-miterlimit:4;stroke-dasharray:none;stroke-opacity:1" />
    <path
       id="rect945"
       style="fill:#1b273d;fill-opacity:1;stroke-width:1.05833;stroke-linecap:round;stroke-linejoin:round"
       d="m 63.336836,10.490466 h 2.351365 c 0.205979,0 0.371803,-0.165824 0.371803,-0.371803 0,-0.2059786 -0.165824,-0.3718028 -0.371803,-0.3718028 h -2.351365 z" />
    <path
       style="fill:#f5dccc;fill-opacity:1;stroke-width:0.282223"
       id="path18"
       fill="#f5dccc"
       d="m 94.371238,59.314742 c -1.979699,-2.00909 -4.712405,-3.232548 -7.736916,-3.232548 -6.005286,0 -10.876206,4.85727 -10.876206,10.875052 0,2.892377 1.12048,5.611661 3.156181,7.662172 l 13.297208,13.880589 c -1.50786,1.148713 -3.256616,2.747746 -4.965336,4.913038 -5.165968,6.547015 -7.785284,15.246365 -7.785284,25.856445 v 3.47113 H 104.91584 V 70.261993 Z" />
    <path
       d="m 32.62876,59.314742 c 1.979702,-2.00909 4.712408,-3.232548 7.73692,-3.232548 6.005286,0 10.876206,4.85727 10.876206,10.875052 0,2.892377 -1.12048,5.611661 -3.156181,7.662172 L 34.788497,88.500007 c 1.50786,1.148713 3.256615,2.747746 4.965336,4.913038 5.165968,6.547015 7.785284,15.246365 7.785284,25.856445 v 3.47113 H 22.084162 V 70.261993 Z"
       fill="#f5dccc"
       id="path1899"
       style="fill:#f6dfd0;fill-opacity:1;stroke-width:0.282223" />
  </g>
</svg>
